<svg xmlns="http://www.w3.org/2000/svg" style="isolation:isolate" viewBox="0 0 512 512">
    <path d="M190.171 0C295.2 0 380.343 85.143 380.343 190.171c0 47.104-17.262 90.405-45.641 123.758l7.899 7.9h23.113L512 468.114 468.114 512 321.829 365.714v-23.113l-7.9-7.899c-33.353 28.379-76.654 45.641-123.758 45.641C85.143 380.343 0 295.2 0 190.171 0 85.143 85.143 0 190.171 0zm0 58.514c-73.142 0-131.657 58.515-131.657 131.657 0 73.143 58.515 131.658 131.657 131.658 73.143 0 131.658-58.515 131.658-131.658 0-73.142-58.515-131.657-131.658-131.657z"/>
    <path d="M132.684 222.508c0 6.324 2.802 12.001 7.186 15.953v9.198a10.764 10.764 0 0010.779 10.779 10.765 10.765 0 0010.779-10.779v-3.593h57.487v3.593c0 5.893 4.815 10.779 10.779 10.779 5.893 0 10.779-4.815 10.779-10.779v-9.198c4.384-3.952 7.186-9.629 7.186-15.953v-71.859c0-25.151-25.726-28.744-57.488-28.744s-57.487 3.593-57.487 28.744v71.859zm25.151 7.186a10.764 10.764 0 01-10.779-10.779 10.764 10.764 0 0110.779-10.779 10.765 10.765 0 0110.779 10.779 10.764 10.764 0 01-10.779 10.779zm64.673 0a10.764 10.764 0 01-10.779-10.779 10.765 10.765 0 0110.779-10.779 10.764 10.764 0 0110.779 10.779 10.764 10.764 0 01-10.779 10.779zm10.779-43.116l-86.231-.015v-35.914h86.231v35.929z"/>
</svg>