<svg xmlns="http://www.w3.org/2000/svg" style="isolation:isolate" viewBox="0 0 512 512">
    <defs>
        <clipPath id="a">
            <path d="M0 0h512v512H0z"/>
        </clipPath>
    </defs>
    <g clip-path="url(#a)">
        <path fill="#4dccbd" d="M0 0h512v512H0z"/>
        <circle cx="217.429" cy="217.429" r="87.5" fill="#A0E4DC"/>
        <path fill="#2373A9" d="M217.429 106c61.54 0 111.428 49.888 111.428 111.429 0 27.6-10.114 52.971-26.743 72.514l4.629 4.628h13.543L406 380.286 380.286 406l-85.715-85.714v-13.543l-4.628-4.629c-19.543 16.629-44.914 26.743-72.514 26.743-61.541 0-111.429-49.888-111.429-111.428C106 155.888 155.888 106 217.429 106zm0 34.286c-42.858 0-77.143 34.285-77.143 77.143 0 42.857 34.285 77.142 77.143 77.142 42.857 0 77.142-34.285 77.142-77.142 0-42.858-34.285-77.143-77.142-77.143z"/>
        <path fill="#16486A" d="M175.323 241.113c0 4.631 2.053 8.789 5.263 11.684v6.737a7.885 7.885 0 007.895 7.895 7.885 7.885 0 007.895-7.895v-2.632h42.105v2.632c0 4.316 3.527 7.895 7.895 7.895 4.316 0 7.895-3.527 7.895-7.895v-6.737c3.21-2.895 5.263-7.053 5.263-11.684v-52.632c0-18.421-18.842-21.052-42.105-21.052-23.264 0-42.106 2.631-42.106 21.052v52.632zm18.421 5.263a7.884 7.884 0 01-7.894-7.895 7.884 7.884 0 017.894-7.895 7.885 7.885 0 017.895 7.895 7.884 7.884 0 01-7.895 7.895zm47.369 0a7.884 7.884 0 01-7.895-7.895 7.885 7.885 0 017.895-7.895 7.885 7.885 0 017.895 7.895 7.885 7.885 0 01-7.895 7.895zm7.895-31.579l-63.158-.011v-26.305h63.158v26.316z"/>
    </g>
</svg>